<svg xmlns="http://www.w3.org/2000/svg" width="14.988" height="10.869" viewBox="0 0 14.988 10.869">
  <path id="Контур_213" data-name="Контур 213" d="M1527.89,2637.64h10.933a2.032,2.032,0,0,1,2.028,2.028v6.813a2.02,2.02,0,0,1-.6,1.43v0a2.021,2.021,0,0,1-1.432.6H1527.89a2.022,2.022,0,0,1-1.432-.6v0a2.02,2.02,0,0,1-.6-1.43v-6.813a2.032,2.032,0,0,1,2.028-2.028Zm10.933,1.2H1527.89a.821.821,0,0,0-.581.242.832.832,0,0,0-.1.116l6.144,4.372,6.144-4.372a.81.81,0,0,0-.1-.116.82.82,0,0,0-.581-.242Zm.823,6.731v-5l-3.515,2.5Zm-.242,1.488a.781.781,0,0,0,.1-.116l-4.406-3.135-1.739,1.237-1.739-1.237-4.406,3.135a.82.82,0,0,0,.679.358h10.933a.826.826,0,0,0,.582-.242Zm-12.338-6.49v5l3.515-2.5Z" transform="translate(-1525.862 -2637.64)" fill="#fefefe"/>
</svg>
