<svg xmlns="http://www.w3.org/2000/svg" xmlns:xlink="http://www.w3.org/1999/xlink" width="125.401" height="125.395" viewBox="0 0 125.401 125.395">
  <defs>
    <clipPath id="clip-path">
      <path id="Контур_3" data-name="Контур 3" d="M508.009,3709.15a62.7,62.7,0,1,1-62.7,62.7,62.7,62.7,0,0,1,62.7-62.7Z" clip-rule="evenodd"/>
    </clipPath>
  </defs>
  <g id="Сгруппировать_432" data-name="Сгруппировать 432" transform="translate(-445.308 -3709.15)">
    <path id="Контур_2" data-name="Контур 2" d="M508.009,3709.15a62.7,62.7,0,1,1-62.7,62.7,62.7,62.7,0,0,1,62.7-62.7Z" fill="#e6e6e6" fill-rule="evenodd"/>
    <g id="Сгруппировать_1" data-name="Сгруппировать 1" clip-path="url(#clip-path)">
      <g id="_2089167492272">
        <path id="_1" d="M465.647,3824.1l.014-2.257a7.14,7.14,0,0,1,1.146,1.1,6.274,6.274,0,0,1,1.1,1.156l-2.263,0Zm-11.758-16.483-.009,2.362h2.353v2.353c2.72,0,2.354-.42,2.354,2.353h1.108c.45.194.547.536.859.94.472.612.387.533.387,1.413l.717.018c.38.7,1.5,1.565,1.636,2.336a3.722,3.722,0,0,1,1.215,1.138,11.986,11.986,0,0,1,1.052,1.213l-2.267,0v2.354h2.353v2.353H468l0-2.275.693.613c.512.45,1.478,1.024,1.658,1.663.72.148,1.647,1.2,2.354,1.6v.752c1.49,0,1.3.394,2.34.969l.013,1.384a6.21,6.21,0,0,1,2.215.123,5.6,5.6,0,0,1,.139,2.231h2.353v2.353h2.354l.011-1.823c.841.359,1.53.761,2.343,1.062v.761a6.117,6.117,0,0,1,2.353.234v2.119h2.354v2.353h2.353v-2.353a5.072,5.072,0,0,1,2.31.277l.044,2.076h2.353l.006-1.52,2.313.453.035,1.067h2.353v1.8H503.3v-1.8h2.353v1.8h2.354v-1.8h2.353v1.8h2.354v-1.8h2.353v1.8h2.354v-1.8h2.354l.006-1.1,2.348-.451v1.554h2.354l.017-2.156a8.108,8.108,0,0,1,2.336-.2v2.353h2.354v-2.353h2.353l.017-2.162a6.326,6.326,0,0,1,2.336-.192l.035-.8,2.3-1.082.02,1.883H538.6l0-2.351,2.351,0a9.184,9.184,0,0,1,.1-2.335l2.258-.019v-1.246a2.346,2.346,0,0,1,.935-.861c.547-.369.718-.247,1.418-.247l.018-.855c.754-.406,1.447-1.426,2.336-1.5.081-.578.111-.42.477-.769a6.861,6.861,0,0,1,.584-.524,7.279,7.279,0,0,1,1.294-1.063,12.449,12.449,0,0,1,2.35-2.35,7.283,7.283,0,0,1,1.063-1.294,6.78,6.78,0,0,1,.589-.656c.288-.293.2-.335.7-.406.072-.889,1.092-1.582,1.5-2.342l.856-.012c0-.845-.124-.9.307-1.5.29-.4.375-.675.8-.858h1.246l.075-2.257a8.557,8.557,0,0,1,2.279-.1l-.009-2.362-.756-.05.691-1.326c-.811-1.264-4.831-2.519-6.518-3.233-6.222-2.634-14.614-6.03-20.767-8.319-3.44-1.28-4.064-1.117-6.215-3.467a28.624,28.624,0,0,0-2.344-2.5c-2.273-1.879-2.319-.9-2.578-2.279-1.189-6.324,2.684-8.1,3.548-15.415.6.259.176.126.579.375,2.355,1.454,4.093-6.672,4.251-7.754a23.334,23.334,0,0,1,1.361-5.268c.728-2.025.235-3.889-2.271-3.411,1.172-4.95,1.975-8.976.77-14.261a26.652,26.652,0,0,0-5.165-10.762c-4.186-5.115-9.557-6.652-16.3-7.64l-5.451-.509a4.855,4.855,0,0,1-1.843-.174,34.8,34.8,0,0,1,5.748-.419c-1.206-.378-5.2-.239-6.676-.135-3.565.253-3.86.979-5.7,1.42a7.043,7.043,0,0,1,1.062-1.194c-1.223.2-3.833,2.087-4.809,3.368a6.944,6.944,0,0,0-.841,1.916,10.044,10.044,0,0,0-7.014,3.511l1.57-.68c-.661.913-2.8,2.1-2.872,6.023a1,1,0,0,0,.264-.257c.009-.01.187-.243.2-.256.117-.166.17-.266.246-.382-.936,4.407-1.485,5.393-1.106,10.561.417,5.688,1.746,8.121,1.989,9.912-2.539-.25-2.685,1.819-2.549,4.027.15,2.437.954,3.058,1.554,4.865.8,2.422,1.728,8.764,4.75,7.559a25.923,25.923,0,0,0,2.352,7.2c.69,1.4,1.13,1.824,1.167,3.622a34.634,34.634,0,0,1-.169,4.5c-.119,1.081.036,1.3-.763,1.713a12.961,12.961,0,0,0-1.469.882,17.037,17.037,0,0,0-3.7,3.362c-1.589,1.759-16.113,6.971-18.287,7.733-3.517,1.232-7.225,2.165-10.462,3.806-2.366,1.2-1.143.908-3.714.974Z" fill="#fefefe" stroke="#3ae05b" stroke-miterlimit="22.926" stroke-width="1.5" fill-rule="evenodd"/>
      </g>
    </g>
  </g>
</svg>
