<svg xmlns="http://www.w3.org/2000/svg" xmlns:xlink="http://www.w3.org/1999/xlink" width="125.401" height="125.395" viewBox="0 0 125.401 125.395">
  <defs>
    <clipPath id="clip-path">
      <path id="Контур_56" data-name="Контур 56" d="M809.143,4798.78a62.7,62.7,0,1,1-62.7,62.7A62.7,62.7,0,0,1,809.143,4798.78Z" clip-rule="evenodd"/>
    </clipPath>
  </defs>
  <g id="Сгруппировать_433" data-name="Сгруппировать 433" transform="translate(-746.442 -4798.78)">
    <g id="Сгруппировать_432" data-name="Сгруппировать 432">
      <path id="Контур_55" data-name="Контур 55" d="M809.143,4798.78a62.7,62.7,0,1,1-62.7,62.7A62.7,62.7,0,0,1,809.143,4798.78Z" fill="#e6e6e6" fill-rule="evenodd"/>
      <g id="Сгруппировать_54" data-name="Сгруппировать 54" clip-path="url(#clip-path)">
        <g id="_2089167518624">
          <path id="_1_7" d="M836.457,4856.52c2.239-2.492,2.513-3.667,1.709-8.055a35.162,35.162,0,0,0-2.48-7.454c-5.156-12.5-2.339-18.623-11.642-27.458-4.156-3.948-7.987-4.447-14.928-4.45-3.372,0-5.857-.194-8.911.87a17.993,17.993,0,0,0-6.233,3.737c-9.316,10.1-5.732,12.825-11.491,27.625a36.369,36.369,0,0,0-2.428,7.538c-.734,4.4-.229,5.452,1.807,7.646-1.224,2.875-2.97,5.534-2.5,9.529.41,3.457,2.7,5.622,2.065,9.769l-1.838,1.361c6.19,5.7,15.1,3.34,16.777,4.058-.153,5.139-3.252,5-4.371,5.376-2.931.979-1.6,2.576-5.082,4.149-3.4,1.537-10.445,4.111-14.333,4.346-11.761.713-18.081,6.9-18.8,18.768l55.365,41.6,55.365-41.644c-.509-12.117-7.239-17.867-19.175-18.758-4.119-.308-10.686-2.917-14.257-4.437-2.282-.971-1.371-.509-2.486-2.305-1.823-2.938-6.925-.873-6.579-7.421,5.3.273,9.78.764,15.185-2.553a8.107,8.107,0,0,0,.91-.669c.672-.606.109,0,.661-.735-2.054-.865-2.575-1.576-1.747-4.667,1.666-6.217,3.908-6.732-.563-15.767Z" fill="#fefefe" stroke="#3ae05b" stroke-miterlimit="22.926" stroke-width="1.5" fill-rule="evenodd"/>
        </g>
      </g>
    </g>
    <path id="Контур_57" data-name="Контур 57" d="M809.143,4798.78a62.7,62.7,0,1,1-62.7,62.7A62.7,62.7,0,0,1,809.143,4798.78Z" fill="none" fill-rule="evenodd"/>
  </g>
</svg>
