<svg xmlns="http://www.w3.org/2000/svg" width="12" height="12" viewBox="0 0 12 12">
  <path id="Контур_16" data-name="Контур 16" d="M809.468,197.933h8.348a1.833,1.833,0,0,1,1.826,1.826v8.348a1.833,1.833,0,0,1-1.826,1.826h-8.348a1.83,1.83,0,0,1-1.826-1.826v-8.348a1.83,1.83,0,0,1,1.826-1.826Zm8.348,1.044h-8.348a.786.786,0,0,0-.783.783v8.348a.783.783,0,0,0,.783.783h8.348a.783.783,0,0,0,.783-.783v-8.348a.786.786,0,0,0-.783-.783Zm-5.3,2.1a.522.522,0,0,1,0-1.044H814.6a.522.522,0,0,1,0,1.044Zm-2.178,1.456a.552.552,0,1,1-.552.553A.553.553,0,0,1,810.335,202.533Zm2.208,0a.552.552,0,1,1-.552.553A.552.552,0,0,1,812.543,202.533Zm2.208,0a.552.552,0,1,1-.552.553A.553.553,0,0,1,814.751,202.533Zm2.208,0a.552.552,0,1,1-.552.553A.552.552,0,0,1,816.959,202.533Zm-6.625,2.209a.552.552,0,1,1-.552.553A.553.553,0,0,1,810.334,204.742Zm0,2.209a.552.552,0,1,1-.552.553A.553.553,0,0,1,810.334,206.951Zm2.208-2.209a.552.552,0,1,1-.552.553A.552.552,0,0,1,812.543,204.742Zm0,2.209a.552.552,0,1,1-.552.553A.552.552,0,0,1,812.543,206.951Zm2.208-2.209a.552.552,0,1,1-.552.553A.553.553,0,0,1,814.751,204.742Zm0,2.209a.552.552,0,1,1-.552.553A.553.553,0,0,1,814.751,206.951Zm2.208-2.209a.552.552,0,1,1-.552.553A.552.552,0,0,1,816.959,204.742Zm0,2.209a.552.552,0,1,1-.552.553A.552.552,0,0,1,816.959,206.951Zm-4.264-5.874a.522.522,0,0,1,0-1.044h2.087a.522.522,0,0,1,0,1.044Z" transform="translate(-807.642 -197.933)" fill="#3ae05a"/>
</svg>
