<svg xmlns="http://www.w3.org/2000/svg" width="18.075" height="14.235" viewBox="0 0 18.075 14.235">
  <path id="Контур_14" data-name="Контур 14" d="M808.935,1206.28a33.6,33.6,0,0,1,5.654-.455,37.433,37.433,0,0,1,5.648.455,4.032,4.032,0,0,1,1.158.359,3.59,3.59,0,0,1,.961.684l0,0a3.647,3.647,0,0,1,.683.963,4.048,4.048,0,0,1,.36,1.159c.071.452.126.887.161,1.3s.056.844.058,1.283-.014.867-.049,1.271a11.983,11.983,0,0,1-.174,1.239,5.374,5.374,0,0,1-.767,1.873,7.8,7.8,0,0,1-1.278,1.5,12.485,12.485,0,0,1-1.44,1.137c-.474.325-.958.616-1.4.871a1,1,0,0,1-1.46-.606,1.028,1.028,0,0,1-.034-.257V1218q-.7.04-1.426.056-.985.022-1.988,0-1.171-.03-2.306-.121t-2.333-.25a3.761,3.761,0,0,1-1.142-.335,3.465,3.465,0,0,1-.951-.674,3.78,3.78,0,0,1-.684-.949,4.55,4.55,0,0,1-.406-1.162,10.855,10.855,0,0,1-.179-1.184q-.059-.607-.059-1.257c0-.437.02-.872.056-1.3s.1-.895.174-1.374a4.073,4.073,0,0,1,.363-1.153,3.566,3.566,0,0,1,1.639-1.639,4.111,4.111,0,0,1,1.154-.368Zm5.654.541a32.64,32.64,0,0,0-5.49.444,3.115,3.115,0,0,0-.876.278,2.606,2.606,0,0,0-1.186,1.186,3.076,3.076,0,0,0-.274.871c-.07.431-.124.865-.162,1.3s-.056.838-.056,1.219q0,.6.055,1.163a9.9,9.9,0,0,0,.164,1.075,3.594,3.594,0,0,0,.315.908,2.747,2.747,0,0,0,.505.7,2.473,2.473,0,0,0,.678.483,2.752,2.752,0,0,0,.837.245q1.126.15,2.283.242t2.251.121q.983.025,1.945,0,.939-.02,1.908-.09l.533-.038,0,2.132c.41-.234.865-.509,1.332-.83a11.475,11.475,0,0,0,1.322-1.043,6.822,6.822,0,0,0,1.118-1.307,4.376,4.376,0,0,0,.626-1.526,11.007,11.007,0,0,0,.158-1.137q.053-.6.049-1.181c0-.38-.022-.781-.058-1.2s-.087-.836-.149-1.234a3.049,3.049,0,0,0-.27-.874,2.615,2.615,0,0,0-.495-.694l0,0a2.57,2.57,0,0,0-.694-.5,3.046,3.046,0,0,0-.872-.269,36.4,36.4,0,0,0-5.5-.444Z" transform="translate(-805.549 -1205.824)" fill="#3ae05b"/>
</svg>
