<svg xmlns="http://www.w3.org/2000/svg" width="210.95" height="25.031" viewBox="0 0 210.95 25.031">
  <path id="Контур_180" data-name="Контур 180" d="M396.886,5721.82h13.56v3.1h-9.7v3.456h4.656a7.319,7.319,0,0,1,4.644,1.272,4.419,4.419,0,0,1,1.6,3.672,4.685,4.685,0,0,1-1.776,3.912,7.964,7.964,0,0,1-5.016,1.392h-7.968v-16.8Zm7.752,13.919a3.779,3.779,0,0,0,2.28-.588,2,2,0,0,0,.792-1.716q0-2.208-3.072-2.208H400.75v4.512Zm21.949-.24v3.12H413.579v-16.8h12.7v3.12h-8.832v3.647h7.8v3.024h-7.8v3.888h9.144Zm9.4-13.679a9.333,9.333,0,0,1,3.876.744,5.758,5.758,0,0,1,2.532,2.112,6.333,6.333,0,0,1,0,6.468,5.657,5.657,0,0,1-2.532,2.112,9.471,9.471,0,0,1-3.876.732H432.6v4.632h-3.888v-16.8h7.272Zm-.216,9a4.083,4.083,0,0,0,2.664-.756,2.633,2.633,0,0,0,.912-2.148,2.66,2.66,0,0,0-.912-2.172,4.083,4.083,0,0,0-2.664-.756H432.6v5.832Zm25.6,4.632v6.648h-3.6v-3.48H445.91v3.48h-3.6l.024-6.648h.672q1.512-.048,2.136-2.208a26.964,26.964,0,0,0,.768-6.168l.192-5.256h12.912v13.631h2.352Zm-12.024-8.016a35.181,35.181,0,0,1-.5,5.028,6.677,6.677,0,0,1-1.176,2.988h7.512v-10.463h-5.76Zm21.565,11.472a9.648,9.648,0,0,1-4.644-1.116,8.322,8.322,0,0,1-3.264-3.1,9.025,9.025,0,0,1,0-8.952,8.327,8.327,0,0,1,3.264-3.1,10.414,10.414,0,0,1,8.616-.348,7.912,7.912,0,0,1,2.964,2.208l-2.5,2.3a5.366,5.366,0,0,0-4.224-1.968,5.609,5.609,0,0,0-2.784.684,4.865,4.865,0,0,0-1.908,1.908,6.007,6.007,0,0,0,0,5.568,4.869,4.869,0,0,0,1.908,1.908,5.609,5.609,0,0,0,2.784.684,5.341,5.341,0,0,0,4.224-1.992l2.5,2.3a7.783,7.783,0,0,1-2.976,2.232,9.882,9.882,0,0,1-3.96.768Zm14.965-7.055h-2.688v6.768H479.32v-16.8h3.864v6.792h2.784l4.416-6.792h4.1l-5.5,8.112,5.664,8.688H490.24Zm18.518,7.055a9.8,9.8,0,0,1-4.716-1.128,8.367,8.367,0,0,1-3.288-3.108,8.935,8.935,0,0,1,0-8.9,8.373,8.373,0,0,1,3.288-3.108,10.4,10.4,0,0,1,9.42,0,8.568,8.568,0,0,1,0,15.119A9.737,9.737,0,0,1,504.391,5738.907Zm0-3.312a5.33,5.33,0,0,0,2.688-.684,4.906,4.906,0,0,0,1.884-1.908,6.007,6.007,0,0,0,0-5.567,4.908,4.908,0,0,0-1.884-1.908,5.623,5.623,0,0,0-5.376,0,4.9,4.9,0,0,0-1.884,1.908,6.007,6.007,0,0,0,0,5.567,4.912,4.912,0,0,0,1.884,1.908A5.33,5.33,0,0,0,504.391,5735.6Zm27.26-13.775v16.8h-3.888v-6.887h-7.632v6.887h-3.888v-16.8h3.888v6.624h7.632v-6.624Zm18.716,0v16.8h-3.84v-13.631h-5.76l-.12,3.5a35.809,35.809,0,0,1-.576,5.8,7.177,7.177,0,0,1-1.524,3.408,3.812,3.812,0,0,1-2.988,1.188,8.664,8.664,0,0,1-1.92-.264l.24-3.288a2.362,2.362,0,0,0,.7.1,2.018,2.018,0,0,0,1.944-1.644,20.126,20.126,0,0,0,.7-5.147l.24-6.815h12.912Zm15.236,13.2h-7.8l-1.488,3.6h-3.984l7.488-16.8h3.84l7.511,16.8h-4.08l-1.488-3.6Zm-1.224-2.952-2.664-6.431-2.664,6.431Zm8.684-10.247h3.864v10.943l8.016-10.943h3.648v16.8h-3.84V5727.7l-8.016,10.919h-3.672Zm7.752-1.08q-4.608,0-4.656-3.672h2.664q.048,1.752,1.992,1.752a2.151,2.151,0,0,0,1.464-.444,1.718,1.718,0,0,0,.528-1.308h2.664a3.381,3.381,0,0,1-1.176,2.736,5.443,5.443,0,0,1-3.48.936Zm27.02,1.08v16.8h-3.888v-6.887h-7.632v6.887h-3.888v-16.8h3.888v6.624h7.632v-6.624Z" transform="translate(-396.886 -5717.068)" fill="#4e5f71"/>
</svg>
