<svg xmlns="http://www.w3.org/2000/svg" width="22.797" height="16.582" viewBox="0 0 22.797 16.582">
  <path id="Контур_325" data-name="Контур 325" d="M789.04,2635.56h16.495a3.165,3.165,0,0,1,3.151,3.151v10.28a3.158,3.158,0,0,1-3.151,3.151H789.04a3.158,3.158,0,0,1-3.151-3.151v-10.28a3.144,3.144,0,0,1,.925-2.222l0,0a3.144,3.144,0,0,1,2.222-.925Zm16.495,2H789.04a1.144,1.144,0,0,0-.812.335l-.084.093,9.143,6.506,9.141-6.5-.082-.094a1.145,1.145,0,0,0-.812-.335Zm1.151,9.886v-7.191l-5.054,3.6Zm-.339,2.356.082-.091-6.517-4.637-2.624,1.867-2.624-1.867-6.517,4.637.082.091a1.148,1.148,0,0,0,.812.339h16.495a1.148,1.148,0,0,0,.812-.339Zm-18.458-9.548v7.191l5.054-3.6Z" transform="translate(-785.889 -2635.56)" fill="#3ae05b"/>
</svg>
