<svg xmlns="http://www.w3.org/2000/svg" width="50.603" height="50.603" viewBox="0 0 50.603 50.603">
  <g id="Сгруппировать_399" data-name="Сгруппировать 399" transform="translate(0)">
    <path id="Контур_350" data-name="Контур 350" d="M219.8,156.706h41.348a4.641,4.641,0,0,1,4.627,4.627v41.348a4.641,4.641,0,0,1-4.627,4.627H219.8a4.641,4.641,0,0,1-4.627-4.627V161.333A4.641,4.641,0,0,1,219.8,156.706Z" transform="translate(-215.178 -156.706)" fill="#fefefe" fill-rule="evenodd"/>
    <path id="Контур_351" data-name="Контур 351" d="M241.945,181.872h15.479v3.534H246.356v3.945h5.315a8.353,8.353,0,0,1,5.3,1.452,5.045,5.045,0,0,1,1.822,4.192,5.349,5.349,0,0,1-2.027,4.466,9.089,9.089,0,0,1-5.726,1.589h-9.1V181.872Zm8.849,15.89a4.312,4.312,0,0,0,2.6-.671,2.288,2.288,0,0,0,.9-1.959q0-2.521-3.507-2.52h-4.438v5.15h4.438Z" transform="translate(-226.331 -167.192)" fill="#0e2433"/>
    <path id="Контур_352" data-name="Контур 352" d="M268.447,217.5a6.924,6.924,0,0,1-3.336-.8,5.829,5.829,0,0,1-2.319-2.228,6.66,6.66,0,0,1,0-6.454,5.854,5.854,0,0,1,2.319-2.216,7.406,7.406,0,0,1,6.695,0,5.857,5.857,0,0,1,2.319,2.216,6.662,6.662,0,0,1,0,6.454,5.832,5.832,0,0,1-2.319,2.228,6.971,6.971,0,0,1-3.359.8Z" transform="translate(-234.669 -176.83)" fill="#0e2433"/>
    <path id="Контур_353" data-name="Контур 353" d="M270.6,216.678a3.725,3.725,0,0,1-1.8-.43,3.136,3.136,0,0,1-1.248-1.2,3.584,3.584,0,0,1,0-3.474,3.15,3.15,0,0,1,1.248-1.193,3.986,3.986,0,0,1,3.6,0,3.152,3.152,0,0,1,1.248,1.193,3.586,3.586,0,0,1,0,3.474,3.138,3.138,0,0,1-1.248,1.2A3.749,3.749,0,0,1,270.6,216.678Z" transform="translate(-236.814 -178.892)" fill="#3ae05b"/>
  </g>
</svg>
