<svg xmlns="http://www.w3.org/2000/svg" width="237.459" height="25.031" viewBox="0 0 237.459 25.031">
  <g id="_2089167482960" transform="translate(-369.627 -191.473)">
    <path id="Контур_18" data-name="Контур 18" d="M396.136,196.225H409.7v3.1H400v3.456h4.656a7.317,7.317,0,0,1,4.644,1.272,4.419,4.419,0,0,1,1.6,3.672,4.685,4.685,0,0,1-1.776,3.912,7.963,7.963,0,0,1-5.016,1.392h-7.968v-16.8Zm7.752,13.919a3.779,3.779,0,0,0,2.28-.588,2,2,0,0,0,.792-1.716q0-2.208-3.072-2.208H400v4.512Zm21.949-.24v3.12H412.829v-16.8h12.7v3.12h-8.832v3.648h7.8v3.024h-7.8V209.9h9.144Zm9.4-13.679a9.333,9.333,0,0,1,3.876.744,5.559,5.559,0,0,1,3.42,5.352,5.831,5.831,0,0,1-.888,3.228,5.657,5.657,0,0,1-2.532,2.112,9.471,9.471,0,0,1-3.876.732H431.85v4.632h-3.888v-16.8h7.272Zm-.216,9a4.083,4.083,0,0,0,2.664-.756,2.633,2.633,0,0,0,.912-2.148,2.661,2.661,0,0,0-.912-2.172,4.083,4.083,0,0,0-2.664-.756H431.85v5.832Zm25.6,4.632V216.5h-3.6v-3.48H445.16v3.48h-3.6l.024-6.648h.672q1.512-.048,2.136-2.208a26.961,26.961,0,0,0,.768-6.168l.192-5.256h12.912v13.632h2.352Zm-12.024-8.016a35.175,35.175,0,0,1-.5,5.028,6.677,6.677,0,0,1-1.176,2.988h7.512V199.393h-5.76Zm21.565,11.471a9.648,9.648,0,0,1-4.644-1.116,8.325,8.325,0,0,1-3.264-3.1,9.025,9.025,0,0,1,0-8.952,8.328,8.328,0,0,1,3.264-3.1,10.416,10.416,0,0,1,8.616-.348,7.911,7.911,0,0,1,2.964,2.208l-2.5,2.3a5.367,5.367,0,0,0-4.224-1.968,5.609,5.609,0,0,0-2.784.684,4.864,4.864,0,0,0-1.908,1.908,6.007,6.007,0,0,0,0,5.568,4.864,4.864,0,0,0,1.908,1.908,5.609,5.609,0,0,0,2.784.684,5.34,5.34,0,0,0,4.224-1.992l2.5,2.3a7.783,7.783,0,0,1-2.976,2.232,9.879,9.879,0,0,1-3.96.768Zm14.965-7.055h-2.688v6.767H478.57v-16.8h3.864v6.792h2.784l4.416-6.792h4.1l-5.5,8.112,5.664,8.687H489.49Z" fill="#fefefe"/>
    <path id="Контур_19" data-name="Контур 19" d="M378.447,213.024a9.409,9.409,0,0,1-4.534-1.087,7.921,7.921,0,0,1-3.152-3.028,9.051,9.051,0,0,1,0-8.773,7.956,7.956,0,0,1,3.152-3.012,10.067,10.067,0,0,1,9.1,0,7.958,7.958,0,0,1,3.152,3.012,9.053,9.053,0,0,1,0,8.773,7.923,7.923,0,0,1-3.152,3.028A9.473,9.473,0,0,1,378.447,213.024Z" fill="#3ae05b"/>
    <path id="Контур_20" data-name="Контур 20" d="M503.641,213.312a9.8,9.8,0,0,1-4.716-1.128,8.37,8.37,0,0,1-3.288-3.108,8.935,8.935,0,0,1,0-8.9,8.374,8.374,0,0,1,3.288-3.108,10.4,10.4,0,0,1,9.42,0,8.568,8.568,0,0,1,0,15.119A9.736,9.736,0,0,1,503.641,213.312Zm0-3.312a5.33,5.33,0,0,0,2.688-.684,4.908,4.908,0,0,0,1.884-1.908,6.007,6.007,0,0,0,0-5.568,4.9,4.9,0,0,0-1.884-1.908,5.623,5.623,0,0,0-5.376,0,4.9,4.9,0,0,0-1.884,1.908,6.007,6.007,0,0,0,0,5.568,4.908,4.908,0,0,0,1.884,1.908A5.33,5.33,0,0,0,503.641,210Zm27.26-13.775v16.8h-3.888v-6.887h-7.632v6.887h-3.888v-16.8h3.888v6.624h7.632v-6.624Zm18.716,0v16.8h-3.84V199.393h-5.76l-.12,3.5a35.805,35.805,0,0,1-.576,5.8A7.174,7.174,0,0,1,537.8,212.1a3.812,3.812,0,0,1-2.988,1.188,8.653,8.653,0,0,1-1.92-.264l.24-3.288a2.358,2.358,0,0,0,.7.1,2.018,2.018,0,0,0,1.944-1.644,20.128,20.128,0,0,0,.7-5.148l.24-6.816h12.912Zm15.236,13.2h-7.8l-1.488,3.6h-3.984l7.488-16.8h3.84l7.511,16.8h-4.08l-1.488-3.6Zm-1.224-2.952-2.664-6.431-2.664,6.431Zm8.684-10.247h3.864v10.943l8.016-10.943h3.648v16.8H584V202.1l-8.016,10.919h-3.672Zm7.752-1.08q-4.608,0-4.656-3.672h2.664q.048,1.752,1.992,1.752a2.151,2.151,0,0,0,1.464-.444,1.718,1.718,0,0,0,.528-1.308h2.664a3.381,3.381,0,0,1-1.176,2.736,5.444,5.444,0,0,1-3.48.936Zm27.02,1.08v16.8H603.2v-6.887h-7.632v6.887h-3.888v-16.8h3.888v6.624H603.2v-6.624Z" fill="#3ae05b"/>
  </g>
</svg>
