<svg xmlns="http://www.w3.org/2000/svg" width="49.57" height="49.569" viewBox="0 0 49.57 49.569">
  <path id="Контур_494" data-name="Контур 494" d="M625.215,177.414A24.785,24.785,0,1,0,650,202.2,24.782,24.782,0,0,0,625.215,177.414ZM617.551,212.8a2.911,2.911,0,1,1,2.91-2.911A2.911,2.911,0,0,1,617.551,212.8Zm21.853-3.523a1.618,1.618,0,0,1-3.236,0A18.062,18.062,0,0,0,618.1,191.215a1.618,1.618,0,1,1,0-3.236,21.3,21.3,0,0,1,21.3,21.3Zm-6.2,0a1.618,1.618,0,1,1-3.236,0,11.818,11.818,0,0,0-3.468-8.387h-.007a11.827,11.827,0,0,0-8.389-3.474,1.618,1.618,0,0,1,0-3.236,15.1,15.1,0,0,1,15.1,15.1Zm-6.2,0a1.618,1.618,0,0,1-3.236,0,5.646,5.646,0,0,0-1.657-4l-.073-.078a5.653,5.653,0,0,0-3.931-1.58,1.618,1.618,0,1,1,0-3.236,8.863,8.863,0,0,1,6.191,2.513l.1.093A8.871,8.871,0,0,1,627,209.279Z" transform="translate(-600.43 -177.414)" fill="#fecc00"/>
</svg>
