<svg xmlns="http://www.w3.org/2000/svg" width="53.149" height="53.148" viewBox="0 0 53.149 53.148">
  <g id="_2089169658592" transform="translate(-595.762 -4444.6)">
    <path id="Контур_468" data-name="Контур 468" d="M622.337,4444.6a26.574,26.574,0,1,0,26.575,26.571A26.571,26.571,0,0,0,622.337,4444.6Zm7.487,12.121,12.317,12.317a3.031,3.031,0,0,1,0,4.272l-12.317,12.317a3.015,3.015,0,0,1-2.38.871c-.1.007-.2.011-.3.011H610.717a3.962,3.962,0,0,1-3.949-3.948v-22.772a3.96,3.96,0,0,1,3.949-3.948h16.426c.1,0,.2,0,.292.011a3.017,3.017,0,0,1,2.388.871Z" fill="#fecc00"/>
    <path id="Контур_469" data-name="Контур 469" d="M615.62,4480.16h-4.6l4.942-6.326a5.879,5.879,0,0,1-2.957-2.171,5.8,5.8,0,0,1-1.048-3.407,5.688,5.688,0,0,1,1.853-4.323,7.11,7.11,0,0,1,5.072-1.741h9.284v17.968h-4.005v-5.877h-4.081l-4.455,5.877Zm1.348-13.907a2.692,2.692,0,0,0,0,4.081,4.1,4.1,0,0,0,2.583.73h4.6v-5.54h-4.6A4.1,4.1,0,0,0,616.968,4466.253Z" fill="#e31e24"/>
  </g>
</svg>
