<svg xmlns="http://www.w3.org/2000/svg" width="49.57" height="49.57" viewBox="0 0 49.57 49.57">
  <path id="Контур_488" data-name="Контур 488" d="M246.336,177.413A24.785,24.785,0,1,0,271.121,202.2a24.785,24.785,0,0,0-24.785-24.785Zm12.573,27.466a47.087,47.087,0,0,1,3.414,3.435,9.723,9.723,0,0,1,1.222,1.761c.471.913.046,1.915-.772,1.969H257.7a3.924,3.924,0,0,1-3.235-1.317c-.7-.715-1.354-1.478-2.031-2.217a4.756,4.756,0,0,0-.914-.813,1.06,1.06,0,0,0-1.69.411,5.318,5.318,0,0,0-.535,2.37c-.055,1.2-.416,1.51-1.618,1.566a13,13,0,0,1-7.266-1.564,16.036,16.036,0,0,1-4.889-4.577,61.687,61.687,0,0,1-6.436-11.473c-.406-.9-.109-1.388.888-1.407,1.657-.032,3.315-.028,4.972,0a1.461,1.461,0,0,1,1.38,1.033,30.867,30.867,0,0,0,3.369,6.244,5.346,5.346,0,0,0,1.274,1.4.773.773,0,0,0,1.314-.386A4.251,4.251,0,0,0,242.57,200a19.556,19.556,0,0,0-.081-4.589,1.915,1.915,0,0,0-1.631-1.752c-.484-.092-.414-.271-.178-.548a1.826,1.826,0,0,1,1.559-.775h5.737c.9.178,1.107.583,1.23,1.494l.005,6.375c-.011.352.177,1.4.81,1.628.507.167.842-.239,1.145-.56a19.819,19.819,0,0,0,3.234-4.967c.387-.787.721-1.6,1.046-2.416a1.235,1.235,0,0,1,1.3-.889l5.525.007a2.883,2.883,0,0,1,.489.029c.931.159,1.186.56.9,1.468a13.768,13.768,0,0,1-2.2,3.807c-.923,1.276-1.907,2.507-2.821,3.788-.839,1.171-.772,1.761.27,2.779Z" transform="translate(-221.551 -177.413)" fill="#56698f"/>
</svg>
