<svg xmlns="http://www.w3.org/2000/svg" width="49.57" height="49.57" viewBox="0 0 49.57 49.57">
  <path id="Контур_487" data-name="Контур 487" d="M94.808,197.955a4.272,4.272,0,1,0-4.3-4.23,4.243,4.243,0,0,0,4.3,4.23Zm-.023-20.542A24.785,24.785,0,1,0,119.57,202.2,24.785,24.785,0,0,0,94.785,177.413Zm.035,7.537a8.73,8.73,0,1,1-8.759,8.711A8.734,8.734,0,0,1,94.82,184.951Zm9.778,20.89a10.491,10.491,0,0,1-3.779,2.442,17.783,17.783,0,0,1-4.29.962c.221.24.326.359.464.5,1.986,2,3.981,3.983,5.96,5.985a1.972,1.972,0,0,1,.444,2.321,2.351,2.351,0,0,1-2.206,1.376,2.149,2.149,0,0,1-1.4-.714c-1.5-1.508-3.027-2.989-4.494-4.526-.429-.447-.633-.362-1.011.027-1.508,1.553-3.04,3.08-4.581,4.6a1.92,1.92,0,0,1-2.319.416,2.346,2.346,0,0,1-1.355-2.161,2.162,2.162,0,0,1,.727-1.449q2.949-2.943,5.886-5.9c.13-.13.251-.269.44-.472a13.415,13.415,0,0,1-7.15-2.552,9.528,9.528,0,0,1-.754-.62,2.143,2.143,0,0,1,2.426-3.493,4.169,4.169,0,0,1,.592.35,11.722,11.722,0,0,0,12.994.118,3.527,3.527,0,0,1,1.266-.654,1.985,1.985,0,0,1,2.275.908,1.928,1.928,0,0,1-.137,2.536Z" transform="translate(-70 -177.413)" fill="#ef7f1a"/>
</svg>
