<svg xmlns="http://www.w3.org/2000/svg" width="28" height="27.999" viewBox="0 0 28 27.999">
  <path id="Контур_36" data-name="Контур 36" d="M1319.12,5802a14,14,0,1,0,14,14A14,14,0,0,0,1319.12,5802Zm7.1,15.514a26.488,26.488,0,0,1,1.929,1.94,5.474,5.474,0,0,1,.69.995c.266.516.026,1.082-.436,1.112h-2.868a2.217,2.217,0,0,1-1.827-.744c-.4-.4-.765-.835-1.147-1.252a2.673,2.673,0,0,0-.516-.459.6.6,0,0,0-.955.232,3.008,3.008,0,0,0-.3,1.339c-.031.676-.235.853-.914.885a7.349,7.349,0,0,1-4.1-.883,9.064,9.064,0,0,1-2.762-2.585,34.852,34.852,0,0,1-3.636-6.48c-.229-.511-.062-.784.5-.794.936-.018,1.872-.016,2.808,0a.825.825,0,0,1,.78.583,17.415,17.415,0,0,0,1.9,3.526,3.014,3.014,0,0,0,.719.791.437.437,0,0,0,.742-.218,2.4,2.4,0,0,0,.165-.74,11.061,11.061,0,0,0-.045-2.592,1.082,1.082,0,0,0-.921-.99c-.274-.052-.234-.153-.1-.31a1.031,1.031,0,0,1,.88-.438h3.241c.511.1.625.33.694.844l0,3.6c-.006.2.1.789.458.919.287.095.475-.135.647-.316a11.2,11.2,0,0,0,1.827-2.805c.219-.444.407-.9.591-1.365a.7.7,0,0,1,.733-.5l3.121,0a1.636,1.636,0,0,1,.276.017c.526.09.67.316.507.83a7.771,7.771,0,0,1-1.24,2.15c-.521.721-1.077,1.416-1.594,2.14-.474.661-.436.995.152,1.569Z" transform="translate(-1305.12 -5802)" fill="#3c5064"/>
</svg>
