<svg xmlns="http://www.w3.org/2000/svg" width="28" height="27.999" viewBox="0 0 28 27.999">
  <path id="Контур_38" data-name="Контур 38" d="M1370.93,5819.64a6.2,6.2,0,0,1-.393,2.053,4.309,4.309,0,0,1-2.474,2.474,6.146,6.146,0,0,1-2.053.394c-.9.042-1.19.051-3.488.051s-2.585-.009-3.488-.051a6.155,6.155,0,0,1-2.053-.394,4.314,4.314,0,0,1-2.474-2.474,6.2,6.2,0,0,1-.393-2.053c-.041-.9-.052-1.189-.052-3.488s.01-2.585.052-3.488a6.21,6.21,0,0,1,.393-2.053,4.322,4.322,0,0,1,2.474-2.472,6.155,6.155,0,0,1,2.053-.394c.9-.042,1.19-.051,3.488-.051s2.585.009,3.488.051a6.158,6.158,0,0,1,2.053.394,4.318,4.318,0,0,1,2.474,2.472,6.223,6.223,0,0,1,.393,2.053c.041.9.052,1.192.052,3.488S1370.971,5818.74,1370.93,5819.64ZM1362.522,5802a14,14,0,1,0,14,14A14,14,0,0,0,1362.522,5802Zm2.82,14.154a2.82,2.82,0,1,1-2.82-2.82A2.82,2.82,0,0,1,1365.342,5816.152Zm1.7-3.5a1.015,1.015,0,1,1,1.015-1.014A1.014,1.014,0,0,1,1367.038,5812.653Zm-4.516,7.846a4.344,4.344,0,1,1,4.344-4.346A4.344,4.344,0,0,1,1362.522,5820.5Zm6.595-9.334a2.814,2.814,0,0,0-1.606-1.605,4.725,4.725,0,0,0-1.571-.292c-.892-.04-1.16-.048-3.418-.048s-2.526.008-3.419.048a4.726,4.726,0,0,0-1.571.292,2.817,2.817,0,0,0-1.605,1.605,4.7,4.7,0,0,0-.291,1.571c-.041.892-.05,1.161-.05,3.417s.009,2.528.05,3.42a4.662,4.662,0,0,0,.291,1.568,2.8,2.8,0,0,0,1.605,1.606,4.661,4.661,0,0,0,1.571.292c.892.042,1.159.051,3.419.051s2.526-.008,3.418-.051a4.65,4.65,0,0,0,1.571-.292,2.795,2.795,0,0,0,1.606-1.606,4.673,4.673,0,0,0,.291-1.568c.041-.892.05-1.161.05-3.42s-.009-2.526-.05-3.417A4.71,4.71,0,0,0,1369.117,5811.164Z" transform="translate(-1348.522 -5801.999)" fill="#4e5f71"/>
</svg>
