<svg xmlns="http://www.w3.org/2000/svg" width="28" height="27.999" viewBox="0 0 28 27.999">
  <path id="Контур_42" data-name="Контур 42" d="M1536.16,5802a14,14,0,1,0,14,14A14,14,0,0,0,1536.16,5802Zm-4.329,19.987a1.644,1.644,0,1,1,1.644-1.644A1.644,1.644,0,0,1,1531.831,5821.987Zm12.344-1.99a.914.914,0,1,1-1.828,0,10.2,10.2,0,0,0-10.2-10.2.914.914,0,1,1,0-1.828,12.03,12.03,0,0,1,12.032,12.03Zm-3.5,0a.914.914,0,1,1-1.828,0,6.676,6.676,0,0,0-1.959-4.737h0a6.681,6.681,0,0,0-4.738-1.962.914.914,0,0,1,0-1.828,8.528,8.528,0,0,1,8.529,8.527Zm-3.5,0a.914.914,0,1,1-1.828,0,3.19,3.19,0,0,0-.936-2.262l-.041-.044a3.194,3.194,0,0,0-2.22-.892.914.914,0,0,1,0-1.828,5.006,5.006,0,0,1,3.5,1.419l.057.052a5.012,5.012,0,0,1,1.472,3.554Z" transform="translate(-1522.16 -5802)" fill="#3c5064"/>
</svg>
