<svg xmlns="http://www.w3.org/2000/svg" width="28" height="27.999" viewBox="0 0 28 27.999">
  <path id="Контур_41" data-name="Контур 41" d="M1458.12,5816.66a26.636,26.636,0,0,1-.175,2.843,3.8,3.8,0,0,1-.7,1.741,2.507,2.507,0,0,1-1.759.745c-2.457.179-6.146.184-6.146.184s-4.564-.042-5.969-.179a2.962,2.962,0,0,1-1.936-.75,3.791,3.791,0,0,1-.7-1.741,26.563,26.563,0,0,1-.176-2.843v-1.331a26.548,26.548,0,0,1,.176-2.842,3.79,3.79,0,0,1,.7-1.741,2.521,2.521,0,0,1,1.759-.745c2.457-.175,6.142-.175,6.142-.175h.007s3.685,0,6.142.175a2.521,2.521,0,0,1,1.759.745,3.8,3.8,0,0,1,.7,1.741,26.621,26.621,0,0,1,.175,2.842v1.331Zm-11.38,2.044,5.2-2.7-5.2-2.715Zm2.6-16.7a14,14,0,1,0,14,14A14,14,0,0,0,1449.342,5802Z" transform="translate(-1435.342 -5802)" fill="#3c5064"/>
</svg>
