<svg xmlns="http://www.w3.org/2000/svg" width="49.57" height="49.57" viewBox="0 0 49.57 49.57">
  <path id="Контур_491" data-name="Контур 491" d="M412.818,196.638c.014.3.021.6.021.907,0,9.267-7.056,19.954-19.955,19.954a19.855,19.855,0,0,1-10.75-3.15,14.364,14.364,0,0,0,1.672.1,14.077,14.077,0,0,0,8.711-3,7.024,7.024,0,0,1-6.553-4.872,7.024,7.024,0,0,0,3.168-.12,7.018,7.018,0,0,1-5.627-6.876c0-.03,0-.061,0-.09a6.965,6.965,0,0,0,3.177.878A7.018,7.018,0,0,1,384.512,191a19.914,19.914,0,0,0,14.456,7.328,7.018,7.018,0,0,1,11.952-6.4,14.037,14.037,0,0,0,4.453-1.7,7.036,7.036,0,0,1-3.083,3.879,14.073,14.073,0,0,0,4.028-1.1,14.268,14.268,0,0,1-3.5,3.632Zm-14.93-19.224A24.785,24.785,0,1,0,422.673,202.2,24.785,24.785,0,0,0,397.888,177.414Z" transform="translate(-373.103 -177.414)" fill="#00a0e3"/>
</svg>
