<svg xmlns="http://www.w3.org/2000/svg" width="49.57" height="49.571" viewBox="0 0 49.57 49.571">
  <g id="Сгруппировать_432" data-name="Сгруппировать 432" transform="translate(-524.654 -177.413)">
    <path id="Контур_492" data-name="Контур 492" d="M549.438,177.413A24.785,24.785,0,1,0,574.224,202.2,24.785,24.785,0,0,0,549.438,177.413Zm0,5.139h0A19.7,19.7,0,0,0,569.086,202.2h0a19.7,19.7,0,0,0-19.646,19.646h0A19.7,19.7,0,0,0,529.792,202.2h0a19.7,19.7,0,0,0,19.647-19.646Z" fill="#5b5b5b"/>
    <path id="Контур_495" data-name="Контур 495" d="M549.439,182.552h0A19.7,19.7,0,0,0,569.086,202.2h0a19.7,19.7,0,0,0-19.646,19.646h0A19.7,19.7,0,0,0,529.792,202.2h0A19.7,19.7,0,0,0,549.439,182.552Z" fill="#ebecec"/>
  </g>
</svg>
