<svg xmlns="http://www.w3.org/2000/svg" width="49.57" height="49.569" viewBox="0 0 49.57 49.569">
  <path id="Контур_493" data-name="Контур 493" d="M489.2,203.369a47.058,47.058,0,0,1-.311,5.033,6.728,6.728,0,0,1-1.235,3.083,4.437,4.437,0,0,1-3.114,1.318c-4.349.316-10.88.326-10.88.326s-8.08-.076-10.568-.316a5.242,5.242,0,0,1-3.427-1.328,6.713,6.713,0,0,1-1.235-3.083,47.013,47.013,0,0,1-.311-5.033v-2.356a47.013,47.013,0,0,1,.311-5.032,6.712,6.712,0,0,1,1.235-3.083,4.462,4.462,0,0,1,3.114-1.318c4.35-.311,10.874-.311,10.874-.311h.013s6.524,0,10.873.311a4.461,4.461,0,0,1,3.114,1.318,6.727,6.727,0,0,1,1.235,3.083,47.056,47.056,0,0,1,.311,5.032v2.356Zm-20.146,3.619,9.211-4.772-9.211-4.806v9.579Zm4.605-29.574A24.785,24.785,0,1,0,498.448,202.2,24.782,24.782,0,0,0,473.663,177.414Z" transform="translate(-448.879 -177.414)" fill="#e31e24"/>
</svg>
