<svg xmlns="http://www.w3.org/2000/svg" width="28" height="27.999" viewBox="0 0 28 27.999">
  <path id="Контур_39" data-name="Контур 39" d="M1414.37,5812.86c.008.169.012.34.012.512a11.267,11.267,0,0,1-17.344,9.491,8.152,8.152,0,0,0,.945.055,7.949,7.949,0,0,0,4.92-1.7,3.968,3.968,0,0,1-3.7-2.751,3.971,3.971,0,0,0,1.789-.067,3.964,3.964,0,0,1-3.179-3.884c0-.017,0-.034,0-.051a3.938,3.938,0,0,0,1.795.5,3.964,3.964,0,0,1-1.226-5.288,11.249,11.249,0,0,0,8.166,4.139,3.964,3.964,0,0,1,6.751-3.613,7.926,7.926,0,0,0,2.515-.961,3.974,3.974,0,0,1-1.742,2.191,7.946,7.946,0,0,0,2.275-.624A8.056,8.056,0,0,1,1414.37,5812.86ZM1405.937,5802a14,14,0,1,0,14,14A14,14,0,0,0,1405.937,5802Z" transform="translate(-1391.937 -5802.001)" fill="#3c5064"/>
</svg>
