<svg xmlns="http://www.w3.org/2000/svg" width="28" height="27.999" viewBox="0 0 28 27.999">
  <path id="Контур_35" data-name="Контур 35" d="M1232.31,5813.61a2.413,2.413,0,1,0-2.428-2.389,2.4,2.4,0,0,0,2.428,2.389Zm-.013-11.6a14,14,0,1,0,14,14A14,14,0,0,0,1232.3,5802.007Zm.02,4.257a4.931,4.931,0,1,1-4.947,4.92,4.933,4.933,0,0,1,4.947-4.92Zm5.523,11.8a5.917,5.917,0,0,1-2.135,1.379,10.036,10.036,0,0,1-2.424.543c.125.136.184.2.262.28,1.122,1.127,2.249,2.25,3.367,3.38a1.114,1.114,0,0,1,.251,1.311,1.329,1.329,0,0,1-1.246.777,1.213,1.213,0,0,1-.789-.4c-.847-.852-1.71-1.688-2.538-2.557-.242-.252-.358-.2-.571.015-.852.877-1.717,1.74-2.588,2.6a1.085,1.085,0,0,1-1.31.235,1.325,1.325,0,0,1-.765-1.221,1.219,1.219,0,0,1,.411-.818q1.666-1.663,3.325-3.331c.074-.073.142-.152.249-.267a7.576,7.576,0,0,1-4.038-1.441,5.335,5.335,0,0,1-.426-.35,1.21,1.21,0,0,1,1.37-1.973,2.376,2.376,0,0,1,.334.2,6.62,6.62,0,0,0,7.34.066,1.988,1.988,0,0,1,.715-.369,1.121,1.121,0,0,1,1.285.513,1.089,1.089,0,0,1-.078,1.432Z" transform="translate(-1218.297 -5802.007)" fill="#3c5064"/>
</svg>
