<svg xmlns="http://www.w3.org/2000/svg" width="11.469" height="11.468" viewBox="0 0 11.469 11.468">
  <path id="Контур_17" data-name="Контур 17" d="M1083.91,201.78a1.9,1.9,0,1,1-1.9,1.9A1.9,1.9,0,0,1,1083.91,201.78Zm3.348-2.152a.5.5,0,0,1,.707.707l-1.316,1.316a.5.5,0,0,1-.707-.707Zm-6.087,6.087a.5.5,0,1,1,.707.707l-1.316,1.315a.5.5,0,1,1-.707-.707l1.316-1.316Zm2.239-7.266a.5.5,0,0,1,1,0v1.861a.5.5,0,1,1-1,0Zm0,8.608a.5.5,0,0,1,1,0v1.861a.5.5,0,0,1-1,0Zm-3.555-6.721a.5.5,0,0,1,.707-.707l1.316,1.316a.5.5,0,1,1-.707.707Zm6.087,6.087a.5.5,0,0,1,.707-.707l1.316,1.316a.5.5,0,0,1-.707.707l-1.316-1.316Zm-7.267-2.239a.5.5,0,0,1,0-1h1.861a.5.5,0,0,1,0,1Zm8.608,0a.5.5,0,0,1,0-1h1.861a.5.5,0,0,1,0,1Z" transform="translate(-1078.176 -197.948)" fill="#3ae05a" fill-rule="evenodd"/>
</svg>
